<?xml version="1.0" encoding="UTF-8" standalone="no"?>
<!-- Created with Inkscape (http://www.inkscape.org/) -->

<svg
   xmlns:dc="http://purl.org/dc/elements/1.1/"
   xmlns:cc="http://creativecommons.org/ns#"
   xmlns:rdf="http://www.w3.org/1999/02/22-rdf-syntax-ns#"
   xmlns:svg="http://www.w3.org/2000/svg"
   xmlns="http://www.w3.org/2000/svg"
   xmlns:xlink="http://www.w3.org/1999/xlink"
   xmlns:sodipodi="http://sodipodi.sourceforge.net/DTD/sodipodi-0.dtd"
   xmlns:inkscape="http://www.inkscape.org/namespaces/inkscape"
   inkscape:export-ydpi="90"
   inkscape:export-xdpi="90"
   inkscape:export-filename="/home/alex/images/herbgrind-logo-2-perspective.png"
   sodipodi:docname="herbgrind-logo-2.5.svg"
   width="210mm"
   height="297mm"
   viewBox="0 0 744.09448819 1052.3622047"
   id="svg2"
   version="1.1"
   inkscape:version="0.91 r13725">
  <sodipodi:namedview
     id="base"
     pagecolor="#ffffff"
     bordercolor="#666666"
     borderopacity="1.0"
     inkscape:pageopacity="0.0"
     inkscape:pageshadow="2"
     inkscape:zoom="1"
     inkscape:cx="656.16357"
     inkscape:cy="411.48864"
     inkscape:document-units="px"
     inkscape:current-layer="layer1"
     showgrid="false"
     inkscape:window-width="1920"
     inkscape:window-height="1057"
     inkscape:window-x="0"
     inkscape:window-y="23"
     inkscape:window-maximized="0" />
  <defs
     id="defs4">
    <pattern
       inkscape:collect="always"
       xlink:href="#Polkadots-large"
       id="pattern7675"
       patternTransform="scale(10,10)" />
    <pattern
       inkscape:collect="always"
       patternUnits="userSpaceOnUse"
       width="10"
       height="10"
       patternTransform="translate(0,0) scale(10,10)"
       id="Polkadots-large"
       inkscape:stockid="Polka dots, large">
      <circle
         style="fill:black;stroke:none"
         cx="2.567"
         cy="0.810"
         r="0.45"
         id="circle5412" />
      <circle
         style="fill:black;stroke:none"
         cx="3.048"
         cy="2.33"
         r="0.45"
         id="circle5414" />
      <circle
         style="fill:black;stroke:none"
         cx="4.418"
         cy="2.415"
         r="0.45"
         id="circle5416" />
      <circle
         style="fill:black;stroke:none"
         cx="1.844"
         cy="3.029"
         r="0.45"
         id="circle5418" />
      <circle
         style="fill:black;stroke:none"
         cx="6.08"
         cy="1.363"
         r="0.45"
         id="circle5420" />
      <circle
         style="fill:black;stroke:none"
         cx="5.819"
         cy="4.413"
         r="0.45"
         id="circle5422" />
      <circle
         style="fill:black;stroke:none"
         cx="4.305"
         cy="4.048"
         r="0.45"
         id="circle5424" />
      <circle
         style="fill:black;stroke:none"
         cx="5.541"
         cy="3.045"
         r="0.45"
         id="circle5426" />
      <circle
         style="fill:black;stroke:none"
         cx="4.785"
         cy="5.527"
         r="0.45"
         id="circle5428" />
      <circle
         style="fill:black;stroke:none"
         cx="2.667"
         cy="5.184"
         r="0.45"
         id="circle5430" />
      <circle
         style="fill:black;stroke:none"
         cx="7.965"
         cy="1.448"
         r="0.45"
         id="circle5432" />
      <circle
         style="fill:black;stroke:none"
         cx="7.047"
         cy="5.049"
         r="0.45"
         id="circle5434" />
      <circle
         style="fill:black;stroke:none"
         cx="4.340"
         cy="0.895"
         r="0.45"
         id="circle5436" />
      <circle
         style="fill:black;stroke:none"
         cx="7.125"
         cy="0.340"
         r="0.45"
         id="circle5438" />
      <circle
         style="fill:black;stroke:none"
         cx="9.553"
         cy="1.049"
         r="0.45"
         id="circle5440" />
      <circle
         style="fill:black;stroke:none"
         cx="7.006"
         cy="2.689"
         r="0.45"
         id="circle5442" />
      <circle
         style="fill:black;stroke:none"
         cx="8.909"
         cy="2.689"
         r="0.45"
         id="circle5444" />
      <circle
         style="fill:black;stroke:none"
         cx="9.315"
         cy="4.407"
         r="0.45"
         id="circle5446" />
      <circle
         style="fill:black;stroke:none"
         cx="7.820"
         cy="3.870"
         r="0.45"
         id="circle5448" />
      <circle
         style="fill:black;stroke:none"
         cx="8.270"
         cy="5.948"
         r="0.45"
         id="circle5450" />
      <circle
         style="fill:black;stroke:none"
         cx="7.973"
         cy="7.428"
         r="0.45"
         id="circle5452" />
      <circle
         style="fill:black;stroke:none"
         cx="9.342"
         cy="8.072"
         r="0.45"
         id="circle5454" />
      <circle
         style="fill:black;stroke:none"
         cx="8.206"
         cy="9.315"
         r="0.45"
         id="circle5456" />
      <circle
         style="fill:black;stroke:none"
         cx="9.682"
         cy="9.475"
         r="0.45"
         id="circle5458" />
      <circle
         style="fill:black;stroke:none"
         cx="9.688"
         cy="6.186"
         r="0.45"
         id="circle5460" />
      <circle
         style="fill:black;stroke:none"
         cx="3.379"
         cy="6.296"
         r="0.45"
         id="circle5462" />
      <circle
         style="fill:black;stroke:none"
         cx="2.871"
         cy="8.204"
         r="0.45"
         id="circle5464" />
      <circle
         style="fill:black;stroke:none"
         cx="4.59"
         cy="8.719"
         r="0.45"
         id="circle5466" />
      <circle
         style="fill:black;stroke:none"
         cx="3.181"
         cy="9.671"
         r="0.45"
         id="circle5468" />
      <circle
         style="fill:black;stroke:none"
         cx="5.734"
         cy="7.315"
         r="0.45"
         id="circle5470" />
      <circle
         style="fill:black;stroke:none"
         cx="6.707"
         cy="6.513"
         r="0.45"
         id="circle5472" />
      <circle
         style="fill:black;stroke:none"
         cx="5.730"
         cy="9.670"
         r="0.45"
         id="circle5474" />
      <circle
         style="fill:black;stroke:none"
         cx="6.535"
         cy="8.373"
         r="0.45"
         id="circle5476" />
      <circle
         style="fill:black;stroke:none"
         cx="4.37"
         cy="7.154"
         r="0.45"
         id="circle5478" />
      <circle
         style="fill:black;stroke:none"
         cx="0.622"
         cy="7.25"
         r="0.45"
         id="circle5480" />
      <circle
         style="fill:black;stroke:none"
         cx="0.831"
         cy="5.679"
         r="0.45"
         id="circle5482" />
      <circle
         style="fill:black;stroke:none"
         cx="1.257"
         cy="8.519"
         r="0.45"
         id="circle5484" />
      <circle
         style="fill:black;stroke:none"
         cx="1.989"
         cy="6.877"
         r="0.45"
         id="circle5486" />
      <circle
         style="fill:black;stroke:none"
         cx="0.374"
         cy="3.181"
         r="0.45"
         id="circle5488" />
      <circle
         style="fill:black;stroke:none"
         cx="1.166"
         cy="1.664"
         r="0.45"
         id="circle5490" />
      <circle
         style="fill:black;stroke:none"
         cx="1.151"
         cy="0.093"
         r="0.45"
         id="circle5492" />
      <circle
         style="fill:black;stroke:none"
         cx="1.151"
         cy="10.093"
         r="0.45"
         id="circle5494" />
      <circle
         style="fill:black;stroke:none"
         cx="1.302"
         cy="4.451"
         r="0.45"
         id="circle5496" />
      <circle
         style="fill:black;stroke:none"
         cx="3.047"
         cy="3.763"
         r="0.45"
         id="circle5498" />
    </pattern>
    <linearGradient
       id="linearGradient5092"
       inkscape:collect="always">
      <stop
         id="stop5094"
         offset="0"
         style="stop-color:#ffffff;stop-opacity:1;" />
      <stop
         id="stop5096"
         offset="1"
         style="stop-color:#ffffff;stop-opacity:0;" />
    </linearGradient>
    <linearGradient
       id="linearGradient5082"
       inkscape:collect="always">
      <stop
         id="stop5084"
         offset="0"
         style="stop-color:#ffffff;stop-opacity:1;" />
      <stop
         id="stop5086"
         offset="1"
         style="stop-color:#ffffff;stop-opacity:0;" />
    </linearGradient>
    <linearGradient
       inkscape:collect="always"
       id="linearGradient5060">
      <stop
         style="stop-color:#ececec;stop-opacity:0.365"
         offset="0"
         id="stop5062" />
      <stop
         style="stop-color:#ececec;stop-opacity:0.09045226"
         offset="1"
         id="stop5064" />
    </linearGradient>
    <linearGradient
       id="linearGradient5004"
       inkscape:collect="always">
      <stop
         id="stop5006"
         offset="0"
         style="stop-color:#f9f9f9;stop-opacity:1;" />
      <stop
         id="stop5008"
         offset="1"
         style="stop-color:#f9f9f9;stop-opacity:0;" />
    </linearGradient>
    <linearGradient
       id="linearGradient4261"
       inkscape:collect="always">
      <stop
         id="stop4263"
         offset="0"
         style="stop-color:#ececec;stop-opacity:1;" />
      <stop
         id="stop4265"
         offset="1"
         style="stop-color:#ececec;stop-opacity:0;" />
    </linearGradient>
    <linearGradient
       id="linearGradient9608"
       inkscape:collect="always">
      <stop
         id="stop9610"
         offset="0"
         style="stop-color:#000000;stop-opacity:1;" />
      <stop
         id="stop9612"
         offset="1"
         style="stop-color:#ffffff;stop-opacity:0.98" />
    </linearGradient>
    <linearGradient
       id="linearGradient9340"
       inkscape:collect="always">
      <stop
         id="stop9342"
         offset="0"
         style="stop-color:#999999;stop-opacity:1;" />
      <stop
         id="stop9344"
         offset="1"
         style="stop-color:#999999;stop-opacity:0;" />
    </linearGradient>
    <pattern
       patternTransform="matrix(1,0,0,0.9879125,0,34.485035)"
       id="pattern8951"
       xlink:href="#Wavy"
       inkscape:collect="always" />
    <pattern
       inkscape:collect="always"
       patternUnits="userSpaceOnUse"
       width="30.066020"
       height="5.1805778"
       id="Wavy"
       inkscape:stockid="Wavy"
       inkscape:isstock="true">
      <path
         style="fill:black;stroke:none;"
         d="M 7.597,0.061 C 5.079,-0.187 2.656,0.302 -0.01,1.788 L -0.01,3.061 C 2.773,1.431 5.173,1.052 7.472,1.280 C 9.770,1.508 11.969,2.361 14.253,3.218 C 18.820,4.931 23.804,6.676 30.066,3.061 L 30.062,1.788 C 23.622,5.497 19.246,3.770 14.691,2.061 C 12.413,1.207 10.115,0.311 7.597,0.061 z "
         id="path5767" />
    </pattern>
    <pattern
       patternTransform="matrix(9.9499661,-1.0853754,0.7289586,10.314165,-38.762941,36.942838)"
       id="pattern8568"
       xlink:href="#Polkadots-med"
       inkscape:collect="always" />
    <pattern
       inkscape:collect="always"
       patternUnits="userSpaceOnUse"
       width="10"
       height="10"
       patternTransform="translate(0,0) scale(10,10)"
       id="Polkadots-med"
       inkscape:stockid="Polka dots, medium"
       inkscape:isstock="true">
      <circle
         style="fill:black;stroke:none"
         cx="2.567"
         cy="0.810"
         r="0.15"
         id="circle5411" />
      <circle
         style="fill:black;stroke:none"
         cx="3.048"
         cy="2.33"
         r="0.15"
         id="circle5413" />
      <circle
         style="fill:black;stroke:none"
         cx="4.418"
         cy="2.415"
         r="0.15"
         id="circle5415" />
      <circle
         style="fill:black;stroke:none"
         cx="1.844"
         cy="3.029"
         r="0.15"
         id="circle5417" />
      <circle
         style="fill:black;stroke:none"
         cx="6.08"
         cy="1.363"
         r="0.15"
         id="circle5419" />
      <circle
         style="fill:black;stroke:none"
         cx="5.819"
         cy="4.413"
         r="0.15"
         id="circle5421" />
      <circle
         style="fill:black;stroke:none"
         cx="4.305"
         cy="4.048"
         r="0.15"
         id="circle5423" />
      <circle
         style="fill:black;stroke:none"
         cx="5.541"
         cy="3.045"
         r="0.15"
         id="circle5425" />
      <circle
         style="fill:black;stroke:none"
         cx="4.785"
         cy="5.527"
         r="0.15"
         id="circle5427" />
      <circle
         style="fill:black;stroke:none"
         cx="2.667"
         cy="5.184"
         r="0.15"
         id="circle5429" />
      <circle
         style="fill:black;stroke:none"
         cx="7.965"
         cy="1.448"
         r="0.15"
         id="circle5431" />
      <circle
         style="fill:black;stroke:none"
         cx="7.047"
         cy="5.049"
         r="0.15"
         id="circle5433" />
      <circle
         style="fill:black;stroke:none"
         cx="4.340"
         cy="0.895"
         r="0.15"
         id="circle5435" />
      <circle
         style="fill:black;stroke:none"
         cx="7.125"
         cy="0.340"
         r="0.15"
         id="circle5437" />
      <circle
         style="fill:black;stroke:none"
         cx="9.553"
         cy="1.049"
         r="0.15"
         id="circle5439" />
      <circle
         style="fill:black;stroke:none"
         cx="7.006"
         cy="2.689"
         r="0.15"
         id="circle5441" />
      <circle
         style="fill:black;stroke:none"
         cx="8.909"
         cy="2.689"
         r="0.15"
         id="circle5443" />
      <circle
         style="fill:black;stroke:none"
         cx="9.315"
         cy="4.407"
         r="0.15"
         id="circle5445" />
      <circle
         style="fill:black;stroke:none"
         cx="7.820"
         cy="3.870"
         r="0.15"
         id="circle5447" />
      <circle
         style="fill:black;stroke:none"
         cx="8.270"
         cy="5.948"
         r="0.15"
         id="circle5449" />
      <circle
         style="fill:black;stroke:none"
         cx="7.973"
         cy="7.428"
         r="0.15"
         id="circle5451" />
      <circle
         style="fill:black;stroke:none"
         cx="9.342"
         cy="8.072"
         r="0.15"
         id="circle5453" />
      <circle
         style="fill:black;stroke:none"
         cx="8.206"
         cy="9.315"
         r="0.15"
         id="circle5455" />
      <circle
         style="fill:black;stroke:none"
         cx="9.682"
         cy="9.475"
         r="0.15"
         id="circle5457" />
      <circle
         style="fill:black;stroke:none"
         cx="9.688"
         cy="6.186"
         r="0.15"
         id="circle5459" />
      <circle
         style="fill:black;stroke:none"
         cx="3.379"
         cy="6.296"
         r="0.15"
         id="circle5461" />
      <circle
         style="fill:black;stroke:none"
         cx="2.871"
         cy="8.204"
         r="0.15"
         id="circle5463" />
      <circle
         style="fill:black;stroke:none"
         cx="4.59"
         cy="8.719"
         r="0.15"
         id="circle5465" />
      <circle
         style="fill:black;stroke:none"
         cx="3.181"
         cy="9.671"
         r="0.15"
         id="circle5467" />
      <circle
         style="fill:black;stroke:none"
         cx="5.734"
         cy="7.315"
         r="0.15"
         id="circle5469" />
      <circle
         style="fill:black;stroke:none"
         cx="6.707"
         cy="6.513"
         r="0.15"
         id="circle5471" />
      <circle
         style="fill:black;stroke:none"
         cx="5.730"
         cy="9.670"
         r="0.15"
         id="circle5473" />
      <circle
         style="fill:black;stroke:none"
         cx="6.535"
         cy="8.373"
         r="0.15"
         id="circle5475" />
      <circle
         style="fill:black;stroke:none"
         cx="4.37"
         cy="7.154"
         r="0.15"
         id="circle5477" />
      <circle
         style="fill:black;stroke:none"
         cx="0.622"
         cy="7.25"
         r="0.15"
         id="circle5479" />
      <circle
         style="fill:black;stroke:none"
         cx="0.831"
         cy="5.679"
         r="0.15"
         id="circle5481" />
      <circle
         style="fill:black;stroke:none"
         cx="1.257"
         cy="8.519"
         r="0.15"
         id="circle5483" />
      <circle
         style="fill:black;stroke:none"
         cx="1.989"
         cy="6.877"
         r="0.15"
         id="circle5485" />
      <circle
         style="fill:black;stroke:none"
         cx="0.374"
         cy="3.181"
         r="0.15"
         id="circle5487" />
      <circle
         style="fill:black;stroke:none"
         cx="1.166"
         cy="1.664"
         r="0.15"
         id="circle5489" />
      <circle
         style="fill:black;stroke:none"
         cx="1.151"
         cy="0.093"
         r="0.15"
         id="circle5491" />
      <circle
         style="fill:black;stroke:none"
         cx="1.151"
         cy="10.093"
         r="0.15"
         id="circle5493" />
      <circle
         style="fill:black;stroke:none"
         cx="1.302"
         cy="4.451"
         r="0.15"
         id="circle5495" />
      <circle
         style="fill:black;stroke:none"
         cx="3.047"
         cy="3.763"
         r="0.15"
         id="circle5497" />
    </pattern>
    <linearGradient
       gradientUnits="userSpaceOnUse"
       y2="624.2085"
       x2="753.28516"
       y1="673.2085"
       x1="417.28516"
       id="linearGradient9346"
       xlink:href="#linearGradient9340"
       inkscape:collect="always" />
    <linearGradient
       gradientUnits="userSpaceOnUse"
       y2="407.97406"
       x2="-322.88287"
       y1="536.66748"
       x1="326.48792"
       id="linearGradient9614"
       xlink:href="#linearGradient9608"
       inkscape:collect="always" />
    <linearGradient
       gradientUnits="userSpaceOnUse"
       y2="811.94586"
       x2="226.27417"
       y1="745.47791"
       x1="38.183762"
       id="linearGradient4267"
       xlink:href="#linearGradient4261"
       inkscape:collect="always" />
    <linearGradient
       gradientUnits="userSpaceOnUse"
       y2="465.46359"
       x2="246.07315"
       y1="232.11832"
       x1="165.46298"
       id="linearGradient5010"
       xlink:href="#linearGradient5004"
       inkscape:collect="always" />
    <radialGradient
       gradientUnits="userSpaceOnUse"
       gradientTransform="matrix(-0.06485871,0.26758535,-0.33487322,-0.08116836,624.62016,454.13345)"
       r="223.20996"
       fy="1317.5322"
       fx="459.03674"
       cy="1317.5322"
       cx="459.03674"
       id="radialGradient5058"
       xlink:href="#linearGradient5060"
       inkscape:collect="always" />
    <radialGradient
       gradientUnits="userSpaceOnUse"
       gradientTransform="matrix(0.13536114,-0.02978996,0.01015634,0.0461489,115.11337,470.94836)"
       r="223.72275"
       fy="156.12201"
       fx="272.91714"
       cy="156.12201"
       cx="272.91714"
       id="radialGradient5088"
       xlink:href="#linearGradient5082"
       inkscape:collect="always" />
    <radialGradient
       gradientUnits="userSpaceOnUse"
       gradientTransform="matrix(0.06807787,-0.00376363,0.02272728,0.41109923,316.78072,397.45641)"
       r="220"
       fy="697.00146"
       fx="-1385.7148"
       cy="697.00146"
       cx="-1385.7148"
       id="radialGradient5098"
       xlink:href="#linearGradient5092"
       inkscape:collect="always" />
    <radialGradient
       r="223.20996"
       fy="911.77338"
       fx="423.203"
       cy="911.77338"
       cx="423.203"
       gradientTransform="matrix(-0.06485871,0.26758535,-0.33487322,-0.08116836,628.62016,454.13345)"
       gradientUnits="userSpaceOnUse"
       id="radialGradient5102"
       xlink:href="#linearGradient5060"
       inkscape:collect="always" />
    <radialGradient
       r="223.72275"
       fy="1565.2759"
       fx="1221.8323"
       cy="1565.2759"
       cx="1221.8323"
       gradientTransform="matrix(0.13518641,-0.00241899,3.4604113e-4,0.01933869,130.1265,466.05444)"
       gradientUnits="userSpaceOnUse"
       id="radialGradient5104"
       xlink:href="#linearGradient5082"
       inkscape:collect="always" />
  </defs>
  <metadata
     id="metadata7">
    <rdf:RDF>
      <cc:Work
         rdf:about="">
        <dc:format>image/svg+xml</dc:format>
        <dc:type
           rdf:resource="http://purl.org/dc/dcmitype/StillImage" />
        <dc:title />
      </cc:Work>
    </rdf:RDF>
  </metadata>
  <g
     style="display:inline"
     id="layer1"
     inkscape:groupmode="layer"
     inkscape:label="Layer 1">
    <path
       inkscape:export-ydpi="90"
       inkscape:export-xdpi="90"
       inkscape:connector-curvature="0"
       id="path8946"
       d="m 573.8529,647.84625 c -123.98281,-0.81974 -272.99149,31.2893 -363.02737,77.73637 -6.80733,3.56699 -13.18783,7.17933 -19.11642,10.82217 0,0 335.46088,-0.93964 335.46088,-0.93964 16.02897,-0.0449 28.77861,6.55411 28.58383,14.77266 0,0 -1.76185,74.34095 -1.76185,74.34095 39.42761,-11.0508 75.0637,-24.11764 104.50751,-38.3488 0,0 0.71414,-0.34708 0.71414,-0.34708 115.1189,-56.08406 108.90962,-116.37156 -16.82606,-133.55145 -20.57754,-2.81145 -43.63712,-4.32067 -68.53466,-4.48518 0,0 0,0 0,0"
       style="opacity:0.131;fill:#000000;fill-opacity:1;fill-rule:evenodd;stroke:none;stroke-width:4;stroke-miterlimit:4;stroke-dasharray:none;stroke-opacity:1" />
    <path
       inkscape:connector-curvature="0"
       id="path9114"
       d="m 132.96737,578.29538 c 0,0 12.92384,234.84007 12.92384,234.84007 0,0 0.0319,0.58045 0.0319,0.58045 0.0997,0.82054 0.34571,1.64244 0.90033,2.41232 0.62129,0.86244 1.52537,1.66919 2.70792,2.36525 0.59527,0.35038 1.3258,0.5251 1.99453,0.78697 0.43341,0.12627 0.86726,0.25213 1.30152,0.37758 0.37265,0.10893 0.74562,0.21756 1.11891,0.32589 0.24256,0.0702 0.48526,0.1402 0.72809,0.2101 130.08811,40.03493 292.21393,39.63748 421.75071,-1.20388 -0.35691,0.096 -0.72142,0.18201 -1.09223,0.25781 -0.38054,0.0777 -0.76726,0.14457 -1.15869,0.2003 -0.39161,0.0552 -0.78741,0.0993 -1.18592,0.13195 -0.39811,0.0332 -0.79848,0.055 -1.19961,0.0654 -0.40205,0.0105 -0.80439,0.01 -1.2055,-0.003 -0.23603,-0.008 -0.47148,-0.0191 -0.70606,-0.0346 -0.39776,-0.0263 -0.79262,-0.0639 -1.18308,-0.11285 -0.39068,-0.0487 -0.77651,-0.10862 -1.15604,-0.17951 -0.37972,-0.0713 -0.75264,-0.15344 -1.11735,-0.2462 -0.36481,-0.0928 -0.72095,-0.19599 -1.0671,-0.30933 -0.34592,-0.11318 -0.68144,-0.2363 -1.0053,-0.3689 -0.32372,-0.13251 -0.6354,-0.27433 -0.93387,-0.42493 -0.29888,-0.15071 -0.58415,-0.31003 -0.85475,-0.47737 -0.27067,-0.16723 -0.52634,-0.34228 -0.76606,-0.52447 -0.23914,-0.18266 -0.46198,-0.37224 -0.66767,-0.56802 -0.20609,-0.19515 -0.39486,-0.39625 -0.56563,-0.60258 -0.17113,-0.20708 -0.3239,-0.41914 -0.45775,-0.63539 -0.13321,-0.21552 -0.24746,-0.43493 -0.34231,-0.65741 -0.0954,-0.22334 -0.17112,-0.44951 -0.22689,-0.67764 -0.0553,-0.22765 -0.0906,-0.45696 -0.10585,-0.68709 -0.0157,-0.23013 -0.0113,-0.46079 0.0132,-0.69112 0.0146,-0.13566 0.0361,-0.27112 0.0646,-0.40621 0.0482,-0.22918 0.11634,-0.45706 0.2041,-0.68278 0.0875,-0.22623 0.19457,-0.45003 0.32089,-0.67056 0.12697,-0.22027 0.27298,-0.43698 0.43747,-0.6493 0.16401,-0.21243 0.3463,-0.42022 0.54619,-0.6226 0.1999,-0.20212 0.41712,-0.39858 0.65084,-0.58864 0.23389,-0.19055 0.48406,-0.37446 0.74958,-0.55102 0.26552,-0.17586 0.54597,-0.34418 0.84028,-0.50431 0.29455,-0.16052 0.60265,-0.31264 0.92316,-0.45578 0.32045,-0.14324 0.65291,-0.27733 0.99613,-0.40176 0.34316,-0.12465 0.69668,-0.23949 1.05922,-0.34408 0.36274,-0.10414 0.734,-0.1979 1.1124,-0.28092 0.37839,-0.0835 0.76349,-0.15618 1.15384,-0.21773 0.38956,-0.0615 0.78387,-0.11185 1.18146,-0.15085 0.39878,-0.0389 0.80033,-0.0663 1.20315,-0.0822 0.40218,-0.0154 0.80507,-0.0193 1.20716,-0.0116 0,0 0,0 0,0 -0.40209,-0.008 -0.80498,-0.004 -1.20716,0.0116 -0.40282,0.0159 -0.80437,0.0433 -1.20315,0.0822 -0.39759,0.039 -0.7919,0.0893 -1.18146,0.15085 -0.39035,0.0616 -0.77545,0.13422 -1.15384,0.21773 -0.3784,0.083 -0.74966,0.17678 -1.1124,0.28092 -0.36254,0.10459 -0.71606,0.21943 -1.05922,0.34408 -0.34322,0.12443 -0.67568,0.25852 -0.99613,0.40176 -0.32051,0.14314 -0.62861,0.29526 -0.92316,0.45578 -0.29431,0.16013 -0.57476,0.32845 -0.84028,0.50431 -0.26552,0.17656 -0.51569,0.36047 -0.74958,0.55102 -0.23372,0.19006 -0.45094,0.38652 -0.65084,0.58864 -0.19989,0.20238 -0.38218,0.41017 -0.54619,0.6226 -0.16449,0.21232 -0.3105,0.42903 -0.43747,0.6493 -0.12632,0.22053 -0.23342,0.44433 -0.32089,0.67056 -0.0878,0.22572 -0.15588,0.4536 -0.2041,0.68278 -0.0285,0.13509 -0.05,0.27055 -0.0646,0.40621 -0.0245,0.23033 -0.0289,0.46099 -0.0132,0.69112 0.0153,0.23013 0.0506,0.45944 0.10585,0.68709 0.0558,0.22813 0.1315,0.4543 0.22689,0.67764 0.0948,0.22248 0.2091,0.44189 0.34231,0.65741 0.13385,0.21625 0.28662,0.42831 0.45775,0.63539 0.17077,0.20633 0.35954,0.40743 0.56563,0.60258 0.20569,0.19578 0.42853,0.38536 0.66767,0.56802 0.23972,0.18219 0.49539,0.35724 0.76606,0.52447 0.2706,0.16734 0.55587,0.32666 0.85475,0.47737 0.29847,0.1506 0.61015,0.29242 0.93387,0.42493 0.32386,0.1326 0.65938,0.25572 1.0053,0.3689 0.34615,0.11334 0.70229,0.21658 1.0671,0.30933 0.36471,0.0928 0.73763,0.17493 1.11735,0.2462 0.37953,0.0709 0.76536,0.1308 1.15604,0.17951 0.39046,0.0489 0.78532,0.0866 1.18308,0.11285 0.23458,0.0155 0.47003,0.0271 0.70606,0.0346 0.40111,0.0125 0.80345,0.0135 1.2055,0.003 0.40113,-0.0104 0.8015,-0.0322 1.19961,-0.0654 0.39851,-0.0327 0.79431,-0.0767 1.18592,-0.13195 0.39143,-0.0557 0.77815,-0.12258 1.15869,-0.2003 0.37081,-0.0758 0.73532,-0.16184 1.09223,-0.25781 0.44937,-0.14268 0.89823,-0.28581 1.34658,-0.4294 0.26092,-0.0923 0.51586,-0.19009 0.76427,-0.29326 0.32567,-0.13818 0.63942,-0.28548 0.94007,-0.44133 0.30109,-0.15573 0.58871,-0.31984 0.86179,-0.49171 0.27247,-0.17218 0.53003,-0.3519 0.77172,-0.53848 0.24237,-0.18687 0.46851,-0.3804 0.67756,-0.57988 0.20859,-0.19867 0.39996,-0.40301 0.57339,-0.61224 0.17353,-0.20989 0.3288,-0.42444 0.46524,-0.64283 0.13675,-0.21817 0.25452,-0.43991 0.35287,-0.66441 0.0978,-0.22469 0.17608,-0.45184 0.23447,-0.68059 0.035,-0.13496 0.063,-0.2704 0.0841,-0.40615 0.001,-0.0192 0.003,-0.0385 0.004,-0.0578 0,0 0.0231,-0.78876 0.0231,-0.78876 -0.007,-0.17858 -0.0269,-0.35679 -0.0585,-0.53425 -0.045,-0.22871 -0.10998,-0.45578 -0.1947,-0.68035 -0.0846,-0.2244 -0.18886,-0.44602 -0.31231,-0.66403 -0.1238,-0.21826 -0.2667,-0.43262 -0.42817,-0.64227 -0.16135,-0.20965 -0.34105,-0.41433 -0.53844,-0.61328 -0.19789,-0.19858 -0.41316,-0.39117 -0.64503,-0.57705 -0.2313,-0.18622 -0.47894,-0.36551 -0.74198,-0.53719 -0.26361,-0.17202 -0.54236,-0.33619 -0.83519,-0.49189 -0.29235,-0.15526 -0.59836,-0.30189 -0.91687,-0.43935 -0.31862,-0.13724 -0.64932,-0.26513 -0.99087,-0.38319 -0.34166,-0.11853 -0.6938,-0.22707 -1.05509,-0.3252 -0.36105,-0.0979 -0.73076,-0.18527 -1.10775,-0.26181 -0.37721,-0.0766 -0.76124,-0.14218 -1.15064,-0.19659 0,0 0,0 0,0 0.3894,0.0544 0.77343,0.12003 1.15064,0.19659 0.37699,0.0765 0.7467,0.16392 1.10775,0.26181 0.36129,0.0981 0.71343,0.20667 1.05509,0.3252 0.34155,0.11806 0.67225,0.24595 0.99087,0.38319 0.31851,0.13746 0.62452,0.28409 0.91687,0.43935 0.29283,0.1557 0.57158,0.31987 0.83519,0.49189 0.26304,0.17168 0.51068,0.35097 0.74198,0.53719 0.23187,0.18588 0.44714,0.37847 0.64503,0.57705 0.19739,0.19895 0.37709,0.40363 0.53844,0.61328 0.16147,0.20965 0.30437,0.42401 0.42817,0.64227 0.12345,0.21801 0.22768,0.43963 0.31231,0.66403 0.0847,0.22457 0.1497,0.45164 0.1947,0.68035 0.0315,0.17746 0.051,0.35567 0.0585,0.53425 0,0 6.90953,-235.52572 6.90953,-235.52572 -8.82129,3.0355 -17.78067,5.88168 -26.86097,8.53643 -9.06993,2.65172 -18.26106,5.11237 -27.55448,7.38589 -9.28407,2.27124 -18.67318,4.35547 -28.14562,6.25071 -9.46418,1.89358 -19.01379,3.60024 -28.63157,5.11968 -9.61074,1.5183 -19.28985,2.8497 -29.01978,3.99535 -9.72409,1.14497 -19.50011,2.10486 -29.30922,2.8783 -9.80458,0.7731 -19.64311,1.36091 -29.49874,1.76327 -9.85241,0.40221 -19.72335,0.61893 -29.59301,0.65085 -9.86778,0.0315 -19.73712,-0.12204 -29.58842,-0.46034 -9.85078,-0.33828 -19.68457,-0.86096 -29.48519,-1.56975 -9.80148,-0.70883 -19.56983,-1.60261 -29.28747,-2.68259 -9.71978,-1.08023 -19.3908,-2.34601 -28.993,-3.79838 -9.60571,-1.45291 -19.14331,-3.09405 -28.59752,-4.92048 -9.459,-1.82738 -18.83481,-3.84182 -28.10825,-6.04447 -9.27944,-2.20408 -18.45898,-4.59617 -27.51855,-7.17769 -9.06676,-2.58357 -18.01511,-5.35617 -26.82737,-8.31972 0,0 -0.447,-0.14929 -0.447,-0.14929 0,0 0,0 0,0"
       style="fill:#000000;fill-opacity:1" />
    <path
       inkscape:connector-curvature="0"
       id="path4244"
       d="m 585.09779,758.7173 c -134.8453,45.15814 -306.7701,45.61346 -442.12614,1.36653 0,0 2.91956,53.05162 2.91956,53.05162 0,0 0.0319,0.58045 0.0319,0.58045 0.0997,0.82054 0.34571,1.64244 0.90033,2.41232 0.62129,0.86244 1.52537,1.66919 2.70792,2.36525 0.59527,0.35038 1.3258,0.5251 1.99453,0.78697 0.43341,0.12627 0.86726,0.25213 1.30152,0.37758 0.37265,0.10893 0.74562,0.21756 1.11891,0.32589 0.24256,0.0702 0.48526,0.1402 0.72809,0.2101 130.08811,40.03493 292.21393,39.63748 421.75071,-1.20388 0.44937,-0.14268 0.89823,-0.28581 1.34658,-0.4294 0.26092,-0.0923 0.51586,-0.19009 0.76427,-0.29326 0.32567,-0.13818 0.63942,-0.28548 0.94007,-0.44133 0.30109,-0.15573 0.58871,-0.31984 0.86179,-0.49171 0.27247,-0.17218 0.53003,-0.3519 0.77172,-0.53848 0.24237,-0.18687 0.46851,-0.3804 0.67756,-0.57988 0.20859,-0.19867 0.39996,-0.40301 0.57339,-0.61224 0.17353,-0.20989 0.3288,-0.42444 0.46524,-0.64283 0.13675,-0.21817 0.25452,-0.43991 0.35287,-0.66441 0.0978,-0.22469 0.17608,-0.45184 0.23447,-0.68059 0.035,-0.13496 0.063,-0.2704 0.0841,-0.40615 0.001,-0.0192 0.003,-0.0385 0.004,-0.0578 0,0 0.0231,-0.78876 0.0231,-0.78876 0,0 1.57379,-53.64603 1.57379,-53.64603 0,0 0,0 0,0"
       style="fill:url(#linearGradient4267);fill-opacity:1" />
    <path
       inkscape:connector-curvature="0"
       id="path8630"
       d="m 132.959,578.14321 c 0,0 0.008,0.15126 0.008,0.15126 0,0 0.447,0.14933 0.447,0.14933 8.81226,2.96356 17.76064,5.73663 26.8274,8.32019 9.05957,2.58153 18.23916,4.97479 27.51861,7.17887 9.27343,2.20265 18.64924,4.21715 28.10824,6.04453 9.45421,1.82643 18.99177,3.46636 28.59747,4.91927 9.6022,1.45237 19.27319,2.7178 28.993,3.79802 9.71763,1.07998 19.486,1.97409 29.28748,2.68292 9.80062,0.7088 19.63443,1.23249 29.48522,1.57077 9.85129,0.33831 19.72064,0.49205 29.58841,0.46013 9.86966,-0.0315 19.74058,-0.24996 29.59299,-0.65218 9.85563,-0.40236 19.69418,-0.98901 29.49875,-1.76211 9.80911,-0.77344 19.58513,-1.73327 29.30922,-2.87824 9.72993,-1.14566 19.40906,-2.47824 29.01979,-3.99654 9.6178,-1.51944 19.16738,-3.22479 28.63155,-5.11836 9.47244,-1.89525 18.86155,-3.9793 28.14562,-6.25054 9.29341,-2.27351 18.48457,-4.73538 27.55451,-7.3871 9.0803,-2.65474 18.03964,-5.49945 26.86092,-8.53496 0,0 0.0202,-0.68847 0.0202,-0.68847 0,0 -10.47793,0.0457 -10.47793,0.0457 -5.62508,1.83529 -11.2056,3.72207 -16.93425,5.40456 -8.98611,2.6392 -18.09517,5.09048 -27.30756,7.35526 -9.20319,2.26252 -18.51058,4.33983 -27.90471,6.2301 -9.38597,1.88862 -18.85836,3.59104 -28.4003,5.10923 -9.53492,1.51709 -19.1415,2.85051 -28.79771,3.99863 -9.65044,1.14744 -19.35257,2.11 -29.08988,2.88963 -9.73278,0.77924 -19.50024,1.37594 -29.2857,1.78814 -9.78223,0.41209 -19.58298,0.64021 -29.38385,0.68568 -9.79895,0.0456 -19.60111,-0.0927 -29.38474,-0.41373 -9.78307,-0.32103 -19.54876,-0.82549 -29.28258,-1.51328 -9.73459,-0.68786 -19.43808,-1.55903 -29.08951,-2.61426 -9.65353,-1.05546 -19.2569,-2.29427 -28.79327,-3.71809 -9.53977,-1.42432 -19.01314,-3.03391 -28.40164,-4.82792 -9.39315,-1.79491 -18.70228,-3.7753 -27.90988,-5.94161 -9.21345,-2.16769 -18.32593,-4.5212 -27.31929,-7.06238 -6.01543,-1.69973 -11.88815,-3.60682 -17.79237,-5.47442 0,0 -11.93953,0.052 -11.93953,0.052 0,0 0,0 0,0"
       style="fill:#000000;fill-opacity:1" />
    <path
       inkscape:connector-curvature="0"
       id="path8623"
       d="m 590.4335,576.83847 c -8.82128,3.03551 -17.78062,5.88022 -26.86092,8.53496 -9.06994,2.65172 -18.2611,5.11359 -27.55451,7.3871 -9.28407,2.27124 -18.67318,4.35529 -28.14562,6.25054 -9.46417,1.89357 -19.01375,3.59892 -28.63155,5.11836 -9.61073,1.5183 -19.28986,2.85088 -29.01979,3.99654 -9.72409,1.14497 -19.50011,2.1048 -29.30922,2.87824 -9.80457,0.7731 -19.64312,1.35975 -29.49875,1.76211 -9.85241,0.40222 -19.72334,0.62025 -29.59299,0.65218 -9.86778,0.0315 -19.73712,-0.12182 -29.58841,-0.46013 -9.85079,-0.33828 -19.6846,-0.86197 -29.48522,-1.57077 -9.80148,-0.70883 -19.56985,-1.60294 -29.28748,-2.68292 -9.71981,-1.08022 -19.3908,-2.34565 -28.993,-3.79802 -9.6057,-1.45291 -19.14326,-3.09284 -28.59747,-4.91927 -9.459,-1.82738 -18.83481,-3.84188 -28.10824,-6.04453 -9.27945,-2.20408 -18.45904,-4.59734 -27.51861,-7.17887 -9.06676,-2.58356 -18.01514,-5.35663 -26.8274,-8.32019 0,0 -0.447,-0.14933 -0.447,-0.14933 0,0 10.00432,181.78916 10.00432,181.78916 135.35623,44.24678 307.28104,43.79126 442.12617,-1.36704 0,0 5.33569,-181.87812 5.33569,-181.87812 0,0 0,0 0,0"
       style="opacity:1;fill:url(#linearGradient9346);fill-opacity:1" />
    <path
       inkscape:connector-curvature="0"
       id="path8619"
       d="m 132.959,578.14321 c 0,0 0.008,0.15126 0.008,0.15126 0,0 0.447,0.14933 0.447,0.14933 8.81226,2.96356 17.76064,5.73663 26.8274,8.32019 9.05957,2.58153 18.23916,4.97479 27.51861,7.17887 9.27343,2.20265 18.64924,4.21715 28.10824,6.04453 9.45421,1.82643 18.99177,3.46636 28.59747,4.91927 9.6022,1.45237 19.27319,2.7178 28.993,3.79802 9.71763,1.07998 19.486,1.97409 29.28748,2.68292 9.80062,0.7088 19.63443,1.23249 29.48522,1.57077 9.85129,0.33831 19.72064,0.49205 29.58841,0.46013 9.86966,-0.0315 19.74058,-0.24996 29.59299,-0.65218 9.85563,-0.40236 19.69418,-0.98901 29.49875,-1.76211 9.80911,-0.77344 19.58513,-1.73327 29.30922,-2.87824 9.72993,-1.14566 19.40906,-2.47824 29.01979,-3.99654 9.6178,-1.51944 19.16738,-3.22479 28.63155,-5.11836 9.47244,-1.89525 18.86155,-3.9793 28.14562,-6.25054 9.29341,-2.27351 18.48457,-4.73538 27.55451,-7.3871 9.0803,-2.65474 18.03964,-5.49945 26.86092,-8.53496 0,0 0.0202,-0.68847 0.0202,-0.68847 0,0 -10.47793,0.0457 -10.47793,0.0457 -5.62508,1.83529 -11.2056,3.72207 -16.93425,5.40456 -8.98611,2.6392 -18.09517,5.09048 -27.30756,7.35526 -9.20319,2.26252 -18.51058,4.33983 -27.90471,6.2301 -9.38597,1.88862 -18.85836,3.59104 -28.4003,5.10923 -9.53492,1.51709 -19.1415,2.85051 -28.79771,3.99863 -9.65044,1.14744 -19.35257,2.11 -29.08988,2.88963 -9.73278,0.77924 -19.50024,1.37594 -29.2857,1.78814 -9.78223,0.41209 -19.58298,0.64021 -29.38385,0.68568 -9.79895,0.0456 -19.60111,-0.0927 -29.38474,-0.41373 -9.78307,-0.32103 -19.54876,-0.82549 -29.28258,-1.51328 -9.73459,-0.68786 -19.43808,-1.55903 -29.08951,-2.61426 -9.65353,-1.05546 -19.2569,-2.29427 -28.79327,-3.71809 -9.53977,-1.42432 -19.01314,-3.03391 -28.40164,-4.82792 -9.39315,-1.79491 -18.70228,-3.7753 -27.90988,-5.94161 -9.21345,-2.16769 -18.32593,-4.5212 -27.31929,-7.06238 -6.01543,-1.69973 -11.88815,-3.60682 -17.79237,-5.47442 0,0 -11.93953,0.052 -11.93953,0.052 0,0 0,0 0,0"
       style="fill:#999999;fill-opacity:1" />
    <path
       inkscape:connector-curvature="0"
       id="path8636"
       d="m 358.17064,537.18601 c -127.38688,0.7395 -228.84931,17.75418 -226.98351,37.87897 0.20012,1.24574 0.8034,2.48726 1.80716,3.71964 0,0 -0.027,-0.49015 -0.027,-0.49015 0,0 0.447,0.14933 0.447,0.14933 8.81226,2.96356 17.76064,5.73663 26.8274,8.32019 9.05957,2.58153 18.23916,4.97479 27.51861,7.17887 9.27343,2.20265 18.64924,4.21715 28.10824,6.04453 9.45421,1.82642 18.99177,3.46636 28.59747,4.91927 3.11229,0.47075 6.23408,0.91558 9.36004,1.34709 33.28793,2.64907 70.3886,3.9416 108.02082,3.76286 40.49412,-0.21238 80.21072,-2.12136 115.09462,-5.53563 0.76582,-0.11849 1.53442,-0.23071 2.29938,-0.35155 9.6178,-1.51944 19.16738,-3.22479 28.63155,-5.11836 9.47244,-1.89526 18.86155,-3.97929 28.14562,-6.25054 9.29341,-2.27351 18.48457,-4.73538 27.55451,-7.3871 8.14489,-2.38126 16.18619,-4.92408 24.12401,-7.61161 1.58918,-1.68926 2.43368,-3.39137 2.52659,-5.09382 0.008,-20.22638 -103.70221,-36.16988 -231.41225,-35.48503 0,0 -0.64029,0.003 -0.64029,0.003 0,0 0,0 0,0"
       style="fill:#4d4d4d;fill-opacity:1;fill-rule:evenodd;stroke:none;stroke-width:4;stroke-miterlimit:4;stroke-dasharray:none;stroke-opacity:1" />
    <path
       inkscape:connector-curvature="0"
       id="rect8638"
       d="m 160.86896,487.10203 c -16.66491,0.0875 -29.65187,7.93919 -29.12659,17.57411 0,0 3.44443,63.17954 3.44443,63.17954 8.06771,2.87545 16.23971,5.58862 24.51487,8.12466 9.08723,2.78494 18.29336,5.36676 27.59827,7.74452 9.2983,2.37609 18.698,4.54928 28.17992,6.52068 9.47662,1.97029 19.03575,3.73953 28.66219,5.30719 9.62253,1.56701 19.31313,2.93255 29.05187,4.09852 9.73626,1.16567 19.52267,2.13106 29.34166,2.89685 9.81793,0.7657 19.66862,1.33202 29.53589,1.69858 9.86768,0.36659 19.75314,0.53436 29.63679,0.50212 9.88553,-0.0324 19.77222,-0.26497 29.64031,-0.69613 9.87141,-0.4313 19.72576,-1.06117 29.54621,-1.89189 9.82521,-0.83113 19.61749,-1.86308 29.35806,-3.09454 9.74673,-1.23223 19.44297,-2.66593 29.07119,-4.29981 9.63569,-1.63517 19.20362,-3.47078 28.68664,-5.50932 9.4918,-2.04045 18.90088,-4.28451 28.20553,-6.73051 9.3146,-2.4486 18.52765,-5.10041 27.62023,-7.9571 4.41445,-1.38693 8.80029,-2.82445 13.15614,-4.30787 0,0 1.82028,-67.85585 1.82028,-67.85585 0.25971,-9.68129 -13.05864,-17.42915 -29.85626,-17.34097 0,0 -388.08763,2.03722 -388.08763,2.03722 0,0 0,0 0,0"
       style="fill:#808080;fill-opacity:1;fill-rule:evenodd;stroke:none;stroke-width:4;stroke-miterlimit:4;stroke-dasharray:none;stroke-opacity:1" />
    <path
       style="fill:url(#pattern8951);fill-opacity:1;fill-rule:evenodd;stroke:none;stroke-width:4;stroke-miterlimit:4;stroke-dasharray:none;stroke-opacity:1"
       d="m 160.86896,487.10203 c -16.66491,0.0875 -29.65551,7.87245 -29.13472,17.42496 0,0 3.41536,62.64636 3.41536,62.64636 8.06742,2.85114 16.23927,5.54135 24.51446,8.05594 9.08732,2.76139 18.29374,5.32138 27.59909,7.67901 9.29882,2.35598 18.69918,4.51076 28.18192,6.46543 9.4775,1.95359 19.03764,3.7078 28.66522,5.26208 9.62372,1.55367 19.31561,2.90752 29.05575,4.06344 9.7377,1.15565 19.52563,2.11265 29.34622,2.8717 9.81956,0.75898 19.67193,1.32019 29.54095,1.68331 9.86944,0.36314 19.7567,0.52909 29.64217,0.49667 9.88735,-0.0335 19.77589,-0.26366 29.64582,-0.6917 9.87325,-0.4282 19.72943,-1.05331 29.55169,-1.87764 9.82699,-0.82471 19.62101,-1.8486 29.36329,-3.07034 9.7484,-1.22252 19.44625,-2.64481 29.07602,-4.26565 9.63719,-1.6221 19.20654,-3.44295 28.69089,-5.46507 9.49308,-2.02399 18.90332,-4.24988 28.20902,-6.67602 9.31559,-2.42872 18.52951,-5.05891 27.62282,-7.89227 4.41477,-1.37559 8.8009,-2.80135 13.15701,-4.27261 0,0 1.80493,-67.28372 1.80493,-67.28372 0.25749,-9.59849 -13.06266,-17.27928 -29.86028,-17.1911 0,0 -388.08763,2.03722 -388.08763,2.03722 0,0 0,0 0,0"
       id="path8646"
       inkscape:connector-curvature="0" />
    <path
       inkscape:connector-curvature="0"
       id="path4416"
       d="m 137.59433,662.37219 c 0,0 0.22213,4.03629 0.22213,4.03629 0,0 0.43962,0.14487 0.43962,0.14487 137.71757,45.68066 312.06318,45.25326 449.58059,-1.19633 0,0 0.11103,-3.78488 0.11103,-3.78488 0,0 -0.88139,0.003 -0.88139,0.003 0,0 -0.005,0.17208 -0.005,0.17208 -136.16772,46.2014 -309.50925,46.83663 -446.19783,1.83556 0,0 -0.0409,-0.75221 -0.0409,-0.75221 -1.10445,-0.1143 -2.17354,-0.27764 -3.22819,-0.45848 0,0 0,0 0,0"
       style="fill:#000000;fill-opacity:1" />
    <path
       style="fill:#000000;fill-opacity:1"
       d="m 132.73779,574.12365 c 0,0 0.22953,4.17082 0.22953,4.17082 0,0 0.447,0.14933 0.447,0.14933 140.01181,47.08577 317.21674,46.50238 457.01918,-1.60533 0,0 0.11476,-3.91158 0.11476,-3.91158 0,0 -0.89606,0.004 -0.89606,0.004 0,0 -0.005,0.17784 -0.005,0.17784 -138.43197,47.85135 -314.61842,48.64874 -453.58507,2.26341 0,0 -0.0423,-0.77729 -0.0423,-0.77729 -1.12277,-0.1172 -2.20963,-0.28511 -3.28184,-0.47114 0,0 0,0 0,0"
       id="path8562"
       inkscape:connector-curvature="0" />
    <path
       inkscape:connector-curvature="0"
       id="path4259"
       d="m 365.39044,407.55996 c -45.71667,-0.0586 -91.06997,4.32186 -134.26685,12.95259 0,0 256.1287,-1.51091 256.1287,-1.51091 -39.42087,-7.36295 -80.48668,-11.21985 -121.86185,-11.44168 0,0 0,0 0,0"
       style="fill:#000000;fill-opacity:1" />
    <path
       inkscape:connector-curvature="0"
       id="path4265"
       d="m 365.39044,407.55996 c -45.71667,-0.0586 -91.06997,4.32186 -134.26685,12.95259 0,0 256.1287,-1.51091 256.1287,-1.51091 -39.42087,-7.36295 -80.48668,-11.21985 -121.86185,-11.44168 0,0 0,0 0,0"
       style="fill:#999999;fill-opacity:1" />
    <path
       inkscape:connector-curvature="0"
       id="path4270"
       d="m 584.3634,432.05804 c -138.46421,64.75961 -319.06964,83.17125 -464.60417,48.00538 0,0 13.18064,96.81357 13.18064,96.81357 142.92801,34.07989 320.43056,16.46958 456.55222,-45.90344 0,0 -5.12869,-98.91551 -5.12869,-98.91551 0,0 0,0 0,0"
       style="fill:url(#linearGradient9614);fill-opacity:1" />
    <path
       inkscape:connector-curvature="0"
       id="path9108"
       d="m 421.72442,390.72568 c -23.31544,0.0804 -46.8342,1.23941 -70.30773,3.46334 -81.71628,8.01694 -160.1002,28.642 -225.60287,59.19364 -0.32634,0.0689 -0.65013,0.14246 -0.96787,0.22948 -0.20199,0.0901 -0.40385,0.18032 -0.60558,0.27061 -1.2381,0.3976 -2.44393,0.86394 -3.45015,1.55008 -1.18078,0.80516 -2.05047,1.73587 -2.61044,2.72679 -0.27674,0.48973 -0.47604,0.99323 -0.59881,1.5051 0,0 1.2e-4,0.002 1.2e-4,0.002 -0.1224,0.51114 -0.16906,1.03052 -0.14362,1.5489 0,0 1.2e-4,0.002 1.2e-4,0.002 0,0 0.0113,0.0881 0.0113,0.0881 0,0 2.4e-4,0.004 2.4e-4,0.004 0.0166,0.25634 0.0512,0.51282 0.10337,0.76801 6.8e-4,0.003 0.001,0.006 0.003,0.0105 0,0 1.2e-4,0.002 1.2e-4,0.002 0,0 2.48214,18.23233 2.48214,18.23233 145.52664,35.16299 326.12535,16.75344 464.58672,-47.99987 0,0 -0.8649,-16.70716 -0.8649,-16.70716 0,0 -0.0236,-0.44117 -0.0236,-0.44117 0,0 -0.0111,-0.20702 -0.0111,-0.20702 0,0 -0.0383,-0.75293 -0.0383,-0.75293 -0.10669,-0.76685 -0.18568,-1.54123 -0.61688,-2.26332 -0.59942,-1.00378 -1.51251,-1.94203 -2.73773,-2.74916 -0.83804,-0.55209 -1.86156,-0.87609 -2.85349,-1.23663 -0.25351,-0.0546 -0.50717,-0.10895 -0.76097,-0.16319 -0.67709,-0.14592 -1.3552,-0.29075 -2.03433,-0.4345 -0.54438,-0.11768 -1.08942,-0.23466 -1.63512,-0.35094 -46.6629,-10.85926 -98.03364,-16.39282 -151.32317,-16.29095 0,0 -1.8e-4,-5.1e-4 -1.8e-4,-5.1e-4 M 125.07278,453.7116 c -0.0189,0.008 -0.0377,0.0166 -0.0566,0.0249 -1.4005,0.62077 -2.79484,1.24569 -4.18294,1.87473 -0.0188,0.008 -0.0377,0.0166 -0.0565,0.0249 0.0403,-0.0283 0.074,-0.0589 0.11507,-0.0869 1.16503,-0.79439 2.52965,-1.39314 4.00121,-1.79563 0.0588,-0.0161 0.12052,-0.0267 0.17971,-0.0421 0,0 2e-5,7e-5 2e-5,7e-5"
       style="fill:#333333;fill-opacity:1" />
    <path
       inkscape:connector-curvature="0"
       id="path4338"
       d="m 421.45477,390.45799 c -23.31648,0.0807 -46.83619,1.24008 -70.31058,3.46449 -67.83187,6.67792 -133.60101,22.0745 -191.7009,44.78835 -23.76159,15.27763 -3.90714,26.89709 50.98396,29.98209 79.04734,4.41836 205.69475,-9.92915 283.63793,-32.24412 0,0 0.49032,-0.14142 0.49032,-0.14142 41.72721,-11.99743 62.66171,-24.48118 57.0433,-34.10167 -40.90827,-7.87778 -84.86716,-11.84718 -130.14403,-11.74772 0,0 0,0 0,0"
       style="fill:#666666;fill-opacity:1" />
    <path
       inkscape:connector-curvature="0"
       id="path4999"
       d="m 450.49675,391.2645 c 1.03788,0.035 2.07497,0.0721 3.11125,0.11147 -1.03628,-0.0393 -2.07337,-0.0765 -3.11125,-0.11147 0,0 0,0 0,0 m 42.01353,2.79612 c 1.01584,0.0948 2.03046,0.19175 3.04384,0.29088 -1.01338,-0.0991 -2.028,-0.1961 -3.04384,-0.29088 0,0 0,0 0,0 m 39.8519,5.09104 c 1.28522,0.20019 2.56764,0.40406 3.84721,0.61158 -1.27957,-0.20752 -2.56199,-0.41139 -3.84721,-0.61158 0,0 0,0 0,0 m 19.46281,3.68579 c 4.4198,9.53886 -16.5103,21.74267 -57.2695,33.47082 0,0 -0.4903,0.13971 -0.4903,0.13971 -77.94336,22.31497 -204.59079,36.66244 -283.63798,32.24403 -53.31152,-3.01671 -73.59084,-14.10991 -52.50327,-28.84486 -11.02864,4.26942 -21.74304,8.78626 -32.11012,13.53551 -0.32634,0.0689 -0.65013,0.14246 -0.96787,0.22948 -0.20199,0.0901 -0.40385,0.18032 -0.60558,0.27061 -1.2381,0.3976 -2.44393,0.86394 -3.45015,1.55008 -1.18078,0.80516 -2.05047,1.73587 -2.61044,2.72679 -0.27674,0.48973 -0.47604,0.99323 -0.59881,1.5051 0,0 1.2e-4,0.002 1.2e-4,0.002 -0.12241,0.51114 -0.16906,1.03051 -0.14362,1.5489 0,0 1.2e-4,0.002 1.2e-4,0.002 0,0 0.0112,0.0881 0.0112,0.0881 0,0 2.4e-4,0.004 2.4e-4,0.004 0.0166,0.25634 0.0512,0.51282 0.10341,0.76801 6.9e-4,0.003 10e-4,0.006 0.003,0.0102 0,0 1.2e-4,0.002 1.2e-4,0.002 0,0 2.48215,18.23234 2.48215,18.23234 145.52665,35.16298 326.12537,16.75343 464.58675,-47.99989 0,0 -0.86489,-16.70716 -0.86489,-16.70716 0,0 -0.0236,-0.44117 -0.0236,-0.44117 0,0 -0.0112,-0.20702 -0.0112,-0.20702 0,0 -0.0383,-0.75293 -0.0383,-0.75293 -0.10669,-0.76686 -0.18568,-1.54123 -0.61688,-2.26333 -0.59942,-1.00378 -1.51251,-1.94202 -2.73773,-2.74916 -0.83804,-0.55209 -1.86155,-0.87608 -2.85349,-1.23662 -0.25351,-0.0546 -0.50716,-0.10895 -0.76096,-0.1632 -0.67709,-0.14591 -1.35521,-0.29075 -2.03434,-0.4345 -0.54438,-0.11768 -1.08942,-0.23466 -1.63512,-0.35094 -6.96968,-1.50845 -14.04672,-2.90209 -21.22262,-4.17917 0,0 0,0 0,0 M 125.07278,453.7116 c -0.0189,0.008 -0.0377,0.0167 -0.0565,0.025 -1.40049,0.62076 -2.79483,1.24568 -4.18294,1.87472 -0.0188,0.008 -0.0377,0.0166 -0.0565,0.025 0.0403,-0.0283 0.074,-0.0589 0.11507,-0.0869 1.16502,-0.79439 2.52964,-1.39314 4.0012,-1.79563 0.0589,-0.0161 0.12053,-0.0266 0.17971,-0.0421 0,0 0,0 0,0"
       style="fill:url(#linearGradient5010);fill-opacity:1" />
    <path
       inkscape:connector-curvature="0"
       id="path6573"
       d="m 421.45477,390.45799 c -23.31648,0.0807 -46.83619,1.24008 -70.31058,3.46449 -67.83187,6.67792 -133.60101,22.0745 -191.7009,44.78835 -23.76159,15.27763 -3.90714,26.89709 50.98396,29.98209 79.04734,4.41836 205.69475,-9.92915 283.63793,-32.24412 0,0 0.49032,-0.14142 0.49032,-0.14142 41.72721,-11.99743 62.66171,-24.48118 57.0433,-34.10167 -40.90827,-7.87778 -84.86716,-11.84718 -130.14403,-11.74772 0,0 0,0 0,0"
       style="fill:url(#pattern8568);fill-opacity:1" />
    <path
       inkscape:connector-curvature="0"
       id="path5031"
       d="m 450.49675,391.2645 c 1.03788,0.035 2.07497,0.0721 3.11125,0.11147 -1.03628,-0.0393 -2.07337,-0.0765 -3.11125,-0.11147 0,0 0,0 0,0 m 42.01353,2.79612 c 1.01584,0.0948 2.03046,0.19175 3.04384,0.29088 -1.01338,-0.0991 -2.028,-0.1961 -3.04384,-0.29088 0,0 0,0 0,0 m 39.8519,5.09104 c 1.28522,0.20019 2.56764,0.40406 3.84721,0.61158 -1.27957,-0.20752 -2.56199,-0.41139 -3.84721,-0.61158 0,0 0,0 0,0 m 19.46281,3.68579 c 4.4198,9.53886 -16.5103,21.74267 -57.2695,33.47082 0,0 -0.4903,0.13971 -0.4903,0.13971 -77.94336,22.31497 -204.59079,36.66244 -283.63798,32.24403 -53.31152,-3.01671 -73.59084,-14.10991 -52.50327,-28.84486 -11.02864,4.26942 -21.74304,8.78626 -32.11012,13.53551 -0.32634,0.0689 -0.65013,0.14246 -0.96787,0.22948 -0.20199,0.0901 -0.40385,0.18032 -0.60558,0.27061 -1.2381,0.3976 -2.44393,0.86394 -3.45015,1.55008 -1.18078,0.80516 -2.05047,1.73587 -2.61044,2.72679 -0.27674,0.48973 -0.47604,0.99323 -0.59881,1.5051 0,0 1.2e-4,0.002 1.2e-4,0.002 -0.12241,0.51114 -0.16906,1.03051 -0.14362,1.5489 0,0 1.2e-4,0.002 1.2e-4,0.002 0,0 0.0112,0.0881 0.0112,0.0881 0,0 2.4e-4,0.004 2.4e-4,0.004 0.0166,0.25634 0.0512,0.51282 0.10341,0.76801 6.9e-4,0.003 10e-4,0.006 0.003,0.0102 0,0 1.2e-4,0.002 1.2e-4,0.002 0,0 2.45421,18.0289 2.45421,18.0289 -0.0834,-0.0185 -0.16679,-0.0371 -0.25016,-0.0557 0,0 13.18064,96.81357 13.18064,96.81357 142.92801,34.07989 320.43056,16.46958 456.55222,-45.90344 0,0 -5.10961,-98.54349 -5.10961,-98.54349 0.0806,-0.0358 0.16108,-0.0716 0.2416,-0.10741 0,0 -0.86489,-16.70716 -0.86489,-16.70716 0,0 -0.0236,-0.44117 -0.0236,-0.44117 0,0 -0.0112,-0.20702 -0.0112,-0.20702 0,0 -0.0383,-0.75293 -0.0383,-0.75293 -0.10669,-0.76686 -0.18568,-1.54123 -0.61688,-2.26333 -0.59942,-1.00378 -1.51251,-1.94202 -2.73773,-2.74916 -0.83804,-0.55209 -1.86155,-0.87608 -2.85349,-1.23662 -0.25351,-0.0546 -0.50716,-0.10895 -0.76096,-0.1632 -0.67709,-0.14591 -1.35521,-0.29075 -2.03434,-0.4345 -0.54438,-0.11768 -1.08942,-0.23466 -1.63512,-0.35094 -6.96968,-1.50845 -14.04672,-2.90209 -21.22262,-4.17917 0,0 0,0 0,0 M 125.07278,453.7116 c -0.0189,0.008 -0.0377,0.0167 -0.0565,0.025 -1.40049,0.62076 -2.79483,1.24568 -4.18294,1.87472 -0.0188,0.008 -0.0377,0.0166 -0.0565,0.025 0.0403,-0.0283 0.074,-0.0589 0.11507,-0.0869 1.16502,-0.79439 2.52964,-1.39314 4.0012,-1.79563 0.0589,-0.0161 0.12053,-0.0266 0.17971,-0.0421 0,0 0,0 0,0 m 7.76406,29.25558 c 3.59596,0.77847 7.21705,1.52665 10.86222,2.24433 -3.64517,-0.71768 -7.26626,-1.46586 -10.86222,-2.24433 0,0 0,0 0,0 m 43.41651,7.77005 c 1.83334,0.26696 3.67144,0.52654 5.51417,0.77871 -1.84273,-0.25217 -3.68083,-0.51175 -5.51417,-0.77871 0,0 0,0 0,0 m 168.60644,3.82803 c -0.0761,0.007 -0.15231,0.0143 -0.22846,0.0215 0.0761,-0.007 0.15231,-0.0143 0.22846,-0.0215 0,0 0,0 0,0 m -127.70455,0.74696 c 1.37328,0.11437 2.74844,0.22479 4.12542,0.33125 -1.37698,-0.10646 -2.75214,-0.21688 -4.12542,-0.33125 0,0 0,0 0,0 m 86.00562,1.87677 c -0.47115,0.0157 -0.94225,0.031 -1.41327,0.0458 0.47102,-0.0148 0.94212,-0.0301 1.41327,-0.0458 0,0 0,0 0,0 m -44.02265,0.29325 c 0.89908,0.022 1.79865,0.0423 2.69872,0.0611 -0.90007,-0.0187 -1.79964,-0.0391 -2.69872,-0.0611 0,0 0,0 0,0"
       style="opacity:0.39599998;fill:url(#radialGradient5088);fill-opacity:1;stroke:url(#radialGradient5058)" />
    <path
       style="opacity:0.21700003;fill:url(#radialGradient5098);fill-opacity:1"
       d="m 590.4335,576.83847 c -8.82128,3.03551 -17.78062,5.88022 -26.86092,8.53496 -9.06994,2.65172 -18.2611,5.11359 -27.55451,7.3871 -9.28407,2.27124 -18.67318,4.35529 -28.14562,6.25054 -9.46417,1.89357 -19.01375,3.59892 -28.63155,5.11836 -9.61073,1.5183 -19.28986,2.85088 -29.01979,3.99654 -9.72409,1.14497 -19.50011,2.1048 -29.30922,2.87824 -9.80457,0.7731 -19.64312,1.35975 -29.49875,1.76211 -9.85241,0.40222 -19.72334,0.62025 -29.59299,0.65218 -9.86778,0.0315 -19.73712,-0.12182 -29.58841,-0.46013 -9.85079,-0.33828 -19.6846,-0.86197 -29.48522,-1.57077 -9.80148,-0.70883 -19.56985,-1.60294 -29.28748,-2.68292 -9.71981,-1.08022 -19.3908,-2.34565 -28.993,-3.79802 -9.6057,-1.45291 -19.14326,-3.09284 -28.59747,-4.91927 -9.459,-1.82738 -18.83481,-3.84188 -28.10824,-6.04453 -9.27945,-2.20408 -18.45904,-4.59734 -27.51861,-7.17887 -9.06676,-2.58356 -18.01514,-5.35663 -26.8274,-8.32019 0,0 -0.447,-0.14933 -0.447,-0.14933 0,0 10.00432,181.78916 10.00432,181.78916 135.35623,44.24678 307.28104,43.79126 442.12617,-1.36704 0,0 5.33569,-181.87812 5.33569,-181.87812 0,0 0,0 0,0"
       id="path5090"
       inkscape:connector-curvature="0" />
    <path
       inkscape:connector-curvature="0"
       style="opacity:0.16000001;fill:url(#radialGradient5104);fill-opacity:1;stroke:url(#radialGradient5102)"
       d="m 454.49675,391.2645 c 1.03788,0.035 2.07497,0.0721 3.11125,0.11147 -1.03628,-0.0393 -2.07337,-0.0765 -3.11125,-0.11147 0,0 0,0 0,0 m 42.01353,2.79612 c 1.01584,0.0948 2.03046,0.19175 3.04384,0.29088 -1.01338,-0.0991 -2.028,-0.1961 -3.04384,-0.29088 0,0 0,0 0,0 m 39.8519,5.09104 c 1.28522,0.20019 2.56764,0.40406 3.84721,0.61158 -1.27957,-0.20752 -2.56199,-0.41139 -3.84721,-0.61158 0,0 0,0 0,0 m 19.46281,3.68579 c 4.4198,9.53886 -16.5103,21.74267 -57.2695,33.47082 0,0 -0.4903,0.13971 -0.4903,0.13971 -77.94336,22.31497 -204.59079,36.66244 -283.63798,32.24403 -53.31152,-3.01671 -73.59084,-14.10991 -52.50327,-28.84486 -11.02864,4.26942 -21.74304,8.78626 -32.11012,13.53551 -0.32634,0.0689 -0.65013,0.14246 -0.96787,0.22948 -0.20199,0.0901 -0.40385,0.18032 -0.60558,0.27061 -1.2381,0.3976 -2.44393,0.86394 -3.45015,1.55008 -1.18078,0.80516 -2.05047,1.73587 -2.61044,2.72679 -0.27674,0.48973 -0.47604,0.99323 -0.59881,1.5051 0,0 1.2e-4,0.002 1.2e-4,0.002 -0.12241,0.51114 -0.16906,1.03051 -0.14362,1.5489 0,0 1.2e-4,0.002 1.2e-4,0.002 0,0 0.0112,0.0881 0.0112,0.0881 0,0 2.4e-4,0.004 2.4e-4,0.004 0.0166,0.25634 0.0512,0.51282 0.10341,0.76801 6.9e-4,0.003 10e-4,0.006 0.003,0.0102 0,0 1.2e-4,0.002 1.2e-4,0.002 0,0 2.45421,18.0289 2.45421,18.0289 -0.0834,-0.0185 -0.16679,-0.0371 -0.25016,-0.0557 0,0 13.18064,96.81357 13.18064,96.81357 142.92801,34.07989 320.43056,16.46958 456.55222,-45.90344 0,0 -5.10961,-98.54349 -5.10961,-98.54349 0.0806,-0.0358 0.16108,-0.0716 0.2416,-0.10741 0,0 -0.86489,-16.70716 -0.86489,-16.70716 0,0 -0.0236,-0.44117 -0.0236,-0.44117 0,0 -0.0112,-0.20702 -0.0112,-0.20702 0,0 -0.0383,-0.75293 -0.0383,-0.75293 -0.10669,-0.76686 -0.18568,-1.54123 -0.61688,-2.26333 -0.59942,-1.00378 -1.51251,-1.94202 -2.73773,-2.74916 -0.83804,-0.55209 -1.86155,-0.87608 -2.85349,-1.23662 -0.25351,-0.0546 -0.50716,-0.10895 -0.76096,-0.1632 -0.67709,-0.14591 -1.35521,-0.29075 -2.03434,-0.4345 -0.54438,-0.11768 -1.08942,-0.23466 -1.63512,-0.35094 -6.96968,-1.50845 -14.04672,-2.90209 -21.22262,-4.17917 0,0 0,0 0,0 M 129.07278,453.7116 c -0.0189,0.008 -0.0377,0.0167 -0.0565,0.025 -1.40049,0.62076 -2.79483,1.24568 -4.18294,1.87472 -0.0188,0.008 -0.0377,0.0166 -0.0565,0.025 0.0403,-0.0283 0.074,-0.0589 0.11507,-0.0869 1.16502,-0.79439 2.52964,-1.39314 4.0012,-1.79563 0.0589,-0.0161 0.12053,-0.0266 0.17971,-0.0421 0,0 0,0 0,0 m 7.76406,29.25558 c 3.59596,0.77847 7.21705,1.52665 10.86222,2.24433 -3.64517,-0.71768 -7.26626,-1.46586 -10.86222,-2.24433 0,0 0,0 0,0 m 43.41651,7.77005 c 1.83334,0.26696 3.67144,0.52654 5.51417,0.77871 -1.84273,-0.25217 -3.68083,-0.51175 -5.51417,-0.77871 0,0 0,0 0,0 m 168.60644,3.82803 c -0.0761,0.007 -0.15231,0.0143 -0.22846,0.0215 0.0761,-0.007 0.15231,-0.0143 0.22846,-0.0215 0,0 0,0 0,0 m -127.70455,0.74696 c 1.37328,0.11437 2.74844,0.22479 4.12542,0.33125 -1.37698,-0.10646 -2.75214,-0.21688 -4.12542,-0.33125 0,0 0,0 0,0 m 86.00562,1.87677 c -0.47115,0.0157 -0.94225,0.031 -1.41327,0.0458 0.47102,-0.0148 0.94212,-0.0301 1.41327,-0.0458 0,0 0,0 0,0 m -44.02265,0.29325 c 0.89908,0.022 1.79865,0.0423 2.69872,0.0611 -0.90007,-0.0187 -1.79964,-0.0391 -2.69872,-0.0611 0,0 0,0 0,0"
       id="path5100" />
    <path
       style="opacity:0.16300001;fill:url(#pattern7675);fill-opacity:1"
       d="m 421.45477,390.45799 c -23.31648,0.0807 -46.83619,1.24008 -70.31058,3.46449 -67.83187,6.67792 -133.60101,22.0745 -191.7009,44.78835 -23.76159,15.27763 -3.90714,26.89709 50.98396,29.98209 79.04734,4.41836 205.69475,-9.92915 283.63793,-32.24412 0,0 0.49032,-0.14142 0.49032,-0.14142 41.72721,-11.99743 62.66171,-24.48118 57.0433,-34.10167 -40.90827,-7.87778 -84.86716,-11.84718 -130.14403,-11.74772 0,0 0,0 0,0"
       id="path4957"
       inkscape:connector-curvature="0" />
  </g>
</svg>
